<?xml version="1.0" encoding="UTF-8"?>
<svg id="Capa_2" data-name="Capa 2" xmlns="http://www.w3.org/2000/svg" viewBox="0 0 32 32">
  <defs>
    <style>
      .cls-1 {
        fill: #fff;
      }

      .cls-2 {
        fill: #1db954;
      }
    </style>
  </defs>
  <g id="Capa_6" data-name="Capa 6">
    <g>
      <rect id="fondo" class="cls-2" width="32" height="32" rx="10" ry="10"/>
      <g>
        <path class="cls-1" d="M23.64,14.03c-.54,.05-1.05,.16-1.53,.33-.47,.17-1,.36-1.57,.56-.25-.42-.59-.79-1.04-1.11-.44-.32-.89-.5-1.34-.55,.19-.16,.42-.36,.7-.61,.28-.25,.56-.53,.85-.84,.29-.31,.56-.65,.83-1.01,.26-.37,.47-.75,.63-1.15,.16-.4,.17-.83,.03-1.28-.13-.45-.36-.87-.68-1.25-.32-.38-.7-.7-1.15-.96-.45-.26-.92-.4-1.4-.43-.61-.03-1.27,.07-1.98,.3-.72,.23-1.43,.56-2.15,.99-.72,.43-1.41,.92-2.09,1.47-.68,.55-1.28,1.12-1.81,1.71-.53,.59-.96,1.17-1.29,1.75-.33,.58-.52,1.1-.55,1.56-.03,.54,.1,.99,.4,1.34,.3,.35,.63,.59,1.01,.73,.38,.14,.74,.17,1.08,.09,.34-.08,.54-.28,.61-.61-.56,.08-.89-.05-.98-.37s0-.77,.28-1.33c.28-.56,.72-1.19,1.33-1.89s1.32-1.38,2.15-2.03c-.23,.5-.52,1.14-.86,1.94-.34,.79-.68,1.61-1.03,2.46-.34,.85-.66,1.68-.97,2.5-.3,.82-.54,1.5-.71,2.04-.09,.26-.08,.49,.05,.69,.12,.19,.3,.35,.51,.45,.17,.08,.35,.12,.55,.12s.39-.13,.59-.4c.11-.16,.3-.39,.56-.7,.26-.31,.57-.64,.92-1,.35-.36,.72-.72,1.12-1.1s.79-.7,1.19-.98c.4-.28,.77-.49,1.13-.63,.36-.14,.66-.16,.91-.07,.12,.05,.22,.13,.28,.26,.06,.12,.1,.25,.13,.37,.02,.12,.03,.24,.02,.35,0,.11-.02,.17-.03,.19-.61,.33-1.28,.75-2.02,1.26-.74,.51-1.47,1.08-2.2,1.69-.73,.61-1.42,1.26-2.08,1.95-.65,.68-1.2,1.35-1.63,2.01-.48,.75-.72,1.39-.71,1.94,0,.54,.19,.94,.56,1.2,.37,.26,.87,.34,1.53,.26,.65-.09,1.38-.38,2.17-.9,.84-.53,1.65-1.15,2.43-1.88,.78-.72,1.47-1.49,2.09-2.3,.61-.81,1.13-1.62,1.54-2.45,.41-.82,.66-1.61,.76-2.36,.3-.16,.68-.32,1.17-.49,.48-.17,.97-.31,1.47-.42,.16-.03,.27-.12,.35-.28,.08-.16,.12-.32,.13-.5,0-.18,0-.33-.05-.47-.04-.13-.1-.19-.2-.17Zm-6.02-2.86c-.48,.55-.97,1.08-1.46,1.57-.49,.5-.94,.95-1.36,1.35-.42,.4-.72,.71-.91,.91,.16-.36,.33-.76,.52-1.21,.19-.45,.39-.91,.59-1.39,.2-.47,.41-.94,.62-1.4,.21-.46,.42-.88,.62-1.27,.06-.12,.07-.25,.02-.37-.05-.12-.12-.24-.23-.34-.11-.1-.23-.18-.37-.24-.14-.06-.26-.1-.35-.12,.33-.23,.68-.44,1.06-.63,.38-.19,.75-.34,1.11-.45,.36-.12,.68-.19,.98-.23,.3-.04,.51-.01,.65,.08,.31,.19,.42,.47,.34,.86-.09,.39-.29,.83-.62,1.32-.33,.49-.73,1.01-1.21,1.56Zm-.43,7.82c-.26,.37-.57,.78-.93,1.21-.37,.44-.77,.87-1.2,1.32-.44,.44-.86,.86-1.28,1.25-.42,.39-.82,.73-1.19,1.01-.37,.29-.68,.49-.93,.59,.12-.48,.42-1.03,.89-1.63,.47-.61,1-1.2,1.61-1.8,.61-.59,1.23-1.14,1.88-1.66,.64-.51,1.2-.92,1.67-1.21-.08,.23-.24,.54-.5,.91Z"/>
        <path class="cls-1" d="M25.5,13.72h0c-.25-.86-.97-1.41-1.83-1.41-.07,0-.14,0-.21,.01-.68,.06-1.33,.2-1.93,.42-.14,.05-.28,.1-.43,.16h-.01c.3-.34,.58-.7,.86-1.08,.35-.48,.63-1,.84-1.55,.29-.76,.32-1.57,.08-2.39-.2-.68-.54-1.31-1.01-1.87-.45-.54-1-.99-1.62-1.35-.68-.39-1.4-.61-2.14-.65h-.02c-.81-.04-1.69,.09-2.61,.38-.83,.27-1.67,.66-2.5,1.15-.78,.47-1.55,1.01-2.29,1.61-.74,.61-1.42,1.25-2,1.9-.6,.68-1.11,1.36-1.5,2.03-.47,.82-.73,1.57-.78,2.32h0c-.06,1,.22,1.88,.8,2.57,.49,.58,1.07,1,1.74,1.24,.02,0,.04,.01,.06,.02-.08,.22-.14,.43-.2,.61-.26,.76-.18,1.53,.23,2.16,.2,.32,.46,.59,.76,.81-.29,.36-.56,.72-.79,1.07v.02c-.69,1.05-1.01,2-1,2.9,.02,1.1,.47,2.01,1.29,2.59,.57,.4,1.26,.6,2.06,.6h0c.22,0,.45-.02,.69-.05,.92-.12,1.86-.5,2.87-1.15,.92-.58,1.82-1.28,2.67-2.07,.85-.79,1.62-1.63,2.29-2.52,.68-.89,1.25-1.8,1.71-2.72,.32-.64,.57-1.28,.73-1.91,.07-.03,.15-.05,.23-.08,.41-.14,.83-.27,1.25-.36,.67-.14,1.22-.57,1.54-1.2,.19-.37,.29-.78,.31-1.2,.02-.37-.02-.71-.12-1.03Zm-.4,1.01c-.02,.35-.1,.68-.25,.99-.24,.49-.66,.81-1.18,.92-.44,.1-.89,.22-1.31,.38-.13,.05-.25,.09-.36,.14l-.13,.05-.03,.13c-.15,.63-.4,1.28-.72,1.93-.44,.89-1,1.78-1.66,2.64-.65,.86-1.4,1.68-2.23,2.45-.83,.77-1.7,1.45-2.6,2.01-.95,.61-1.82,.97-2.66,1.08-.21,.03-.42,.04-.62,.04h0c-.69,0-1.28-.17-1.76-.51-.68-.48-1.06-1.25-1.07-2.17-.01-.79,.28-1.65,.9-2.61v-.02c.28-.41,.6-.83,.95-1.25l.2-.24-.27-.15c-.34-.2-.63-.47-.84-.8-.32-.5-.38-1.11-.17-1.72,.08-.25,.18-.54,.29-.86l.09-.26-.27-.07c-.09-.03-.19-.06-.28-.09-.58-.21-1.09-.58-1.52-1.09-.49-.58-.73-1.34-.68-2.19h0c.04-.67,.28-1.36,.71-2.1,.37-.64,.86-1.3,1.44-1.95,.57-.63,1.22-1.25,1.94-1.84,.72-.59,1.47-1.12,2.23-1.57,.79-.47,1.59-.84,2.39-1.1,.75-.24,1.47-.37,2.14-.37,.09,0,.19,0,.28,0h.02c.66,.04,1.31,.24,1.92,.59,.57,.33,1.07,.74,1.48,1.23,.42,.51,.73,1.08,.91,1.68,.21,.71,.19,1.4-.07,2.06-.19,.5-.45,.98-.78,1.43-.29,.4-.6,.78-.92,1.13l-.26,.28,.21,.18c.11,.09,.21,.18,.3,.28l.12,.11,.15-.05c.2-.07,.4-.14,.58-.21,.56-.2,1.17-.33,1.81-.39,.05,0,.1,0,.15,0,.62,0,1.14,.41,1.33,1.04,.08,.26,.11,.55,.1,.86Z"/>
      </g>
    </g>
  </g>
</svg>