<?xml version="1.0" encoding="UTF-8"?>
<svg id="Capa_2" data-name="Capa 2" xmlns="http://www.w3.org/2000/svg" viewBox="0 0 52.49 12.5">
  <defs>
    <style>
      .cls-1 {
        fill: #fff;
      }
    </style>
  </defs>
  <g id="Capa_6" data-name="Capa 6">
    <g>
      <path class="cls-1" d="M4.28,.71l.02,11.35c0,.4-1.14,.4-1.14,0l-.02-11.33L.31,.8c-.4,.01-.41-.59-.01-.6L3.19,.12c.11-.16,.38-.17,.5-.01L6.72,.03c.4-.01,.41,.59,.01,.6l-2.45,.08Z"/>
      <path class="cls-1" d="M6.64,4.44c2.17-2.54,4.33,.43,1.88,1.37-.37,.14-.59-.42-.22-.56,.95-.36,.74-.93,.48-1.1-.31-.2-1.19-.23-2.16,1.34l-.05,3.6c0,.4-1.08,.39-1.08-.01l.07-5.36c0-.4,1.08-.39,1.08,.01v.71Z"/>
      <path class="cls-1" d="M13.15,9.01c-3.32,.38-5.19-4.74-.02-5.28,.04-.35,1.08-.34,1.08,.04l.02,5.26c0,.4-1.08,.4-1.08,0v-.02Zm-.02-4.68c-4.31,.49-2.56,4.43,.02,4.07l-.02-4.07Z"/>
      <path class="cls-1" d="M16.52,4.27c.67-.63,1.6-1.22,2.32-.45,.66,.7,.89,2.42,.73,5.2-.02,.4-.62,.37-.6-.04,.12-2.04,.14-5.44-1.25-4.84-.33,.14-.73,.47-1.2,1l-.02,3.91c0,.4-1.08,.4-1.08,0l.02-5.27c0-.4,1.08-.4,1.08,0v.49Z"/>
      <path class="cls-1" d="M21.77,5.37c.14,.58,2.48,.66,2.54,1.81,.04,.83-1.05,1.5-3.38,2.19-.38,.11-.55-.46-.17-.58,1.66-.49,3.24-1.31,2.17-1.86-.69-.35-2.08-.59-2.27-1.43-.28-1.19,.67-1.61,3.3-1.96,.4-.05,.47,.54,.08,.6-2.9,.38-2.36,.79-2.25,1.23Z"/>
      <path class="cls-1" d="M26.4,6.26c-.08,.73-.14,1.66-.13,2.84,0,.4-1.04,.42-1.04,.02,0-.14-.04-1.54,.13-2.92-.16-.13-.14-.43,.07-.51,.19-1.12,.36-2.36,1-2.5,.62-.14,1.59,.81,1.69,1.31,.08,.39-.51,.51-.59,.12-.05-.23-.22-.86-.52-.48-.19,.22-.38,.69-.52,1.51h1.45c.4,0,.4,.6,0,.6h-1.54Z"/>
      <path class="cls-1" d="M30.33,5.34c.02-.11,.03-.23,.05-.34,.1-.71,.56-4.03,1.07-4.74,.05-.07,.17-.22,.38-.22,.56,0,.73,1.3,.79,1.62,.33,1.79,.48,3.63,.62,5.44,.15-1.29,.71-5.97,1.33-6.84,.05-.07,.18-.22,.38-.22,.56,0,.73,1.3,.79,1.62,.16,.86,.31,2.03,.43,3.31,.26,2.55,.43,5.5,.43,7.15,0,.4-.6,.4-.6,0,0-1.63-.17-4.56-.42-7.09-.14-1.34-.23-2.86-.64-4.16-.83,2.25-1.45,9.1-1.45,11.25,0,.42-.6,.42-.6,0,0-1.63-.17-4.56-.42-7.09-.14-1.34-.23-2.86-.64-4.16-.84,2.27-1.48,9.17-1.48,11.33,0,.4-1.14,.4-1.14,0V.33c0-.4,1.14-.4,1.14,0V5.34Z"/>
      <path class="cls-1" d="M39.74,8.75c1.28,.03,1.41-4.31,1.4-4.98,0-.4,.59-.41,.6-.01,.02,1.1-.1,5.67-2.01,5.59-2.28-.09-2.32-2.18-2.32-5.57,0-.4,1.08-.4,1.08,0,0,3.74,.49,4.95,1.25,4.97Z"/>
      <path class="cls-1" d="M43.83,5.37c.14,.58,2.48,.66,2.54,1.81,.04,.83-1.05,1.5-3.38,2.19-.38,.11-.55-.46-.17-.58,1.66-.49,3.24-1.31,2.17-1.86-.69-.35-2.08-.59-2.27-1.43-.28-1.19,.67-1.61,3.3-1.96,.4-.05,.47,.54,.08,.6-2.9,.38-2.36,.79-2.25,1.23Z"/>
      <path class="cls-1" d="M47.67,3.9c.22,0,.88,.19,.88,.41s-.66,.41-.88,.41-.4-.19-.4-.41,.18-.41,.4-.41Zm.73,5.13c0,.4-1.08,.4-1.08,0v-3.61c0-.4,1.08-.4,1.08,0v3.61Z"/>
      <path class="cls-1" d="M52.47,6.99c.26,2.44-2.19,3.29-2.66,1.53-.23-.89-.63-4.79,.62-4.98,2.02-.32,2.04,1.13,1.83,1.86-.11,.38-.69,.22-.58-.17,.06-.22,.25-1.12-.35-1.14-.73,.46-.78,3.44-.59,4.18,.32,1.21,1.27,.22,1.12-1.21-.02-.19,.08-.41,.29-.41,.2,0,.31,.16,.3,.31v.04Z"/>
    </g>
  </g>
</svg>